<svg width="40" height="40" viewBox="0 0 40 40" fill="none" xmlns="http://www.w3.org/2000/svg">
<path d="M20.6862 37.9217L20.1717 37.0642L20.1717 37.0642L20.6862 37.9217ZM24.6813 36.6908C25.1549 36.4066 25.3085 35.7924 25.0243 35.3188C24.7402 34.8452 24.1259 34.6917 23.6523 34.9758L24.6813 36.6908ZM16.348 34.9758C15.8744 34.6917 15.2602 34.8452 14.976 35.3188C14.6919 35.7924 14.8454 36.4066 15.319 36.6908L16.348 34.9758ZM19.3142 37.9217L18.7997 38.7792L18.7997 38.7792L19.3142 37.9217ZM31.9857 29.9758C31.5121 30.2599 31.3585 30.8742 31.6427 31.3478C31.9268 31.8214 32.5411 31.9749 33.0147 31.6908L31.9857 29.9758ZM36.0195 28.7217L35.505 27.8642L35.505 27.8642L36.0195 28.7217ZM3.98084 28.7217L3.46634 29.5792L3.46634 29.5792L3.98084 28.7217ZM6.98567 31.6908C7.45925 31.9749 8.07351 31.8214 8.35766 31.3478C8.6418 30.8742 8.48824 30.2599 8.01466 29.9758L6.98567 31.6908ZM4.3335 24.1666C4.3335 23.6143 3.88578 23.1666 3.3335 23.1666C2.78121 23.1666 2.3335 23.6143 2.3335 24.1666H4.3335ZM2.3335 15.8333C2.3335 16.3856 2.78121 16.8333 3.3335 16.8333C3.88578 16.8333 4.3335 16.3856 4.3335 15.8333H2.3335ZM8.01466 10.0241C8.48824 9.73997 8.6418 9.12571 8.35766 8.65213C8.07351 8.17855 7.45925 8.02499 6.98567 8.30913L8.01466 10.0241ZM3.98084 11.2782L3.46634 10.4207L3.46634 10.4207L3.98084 11.2782ZM19.3142 2.07822L19.8287 2.93572L19.8287 2.93571L19.3142 2.07822ZM15.319 3.30913C14.8454 3.59328 14.6919 4.20754 14.976 4.68112C15.2602 5.1547 15.8744 5.30827 16.348 5.02412L15.319 3.30913ZM23.6523 5.02412C24.1259 5.30827 24.7402 5.1547 25.0243 4.68112C25.3085 4.20754 25.1549 3.59328 24.6813 3.30913L23.6523 5.02412ZM20.6862 2.07822L21.2007 1.22073L21.2007 1.22073L20.6862 2.07822ZM36.0195 11.2782L36.534 10.4207L36.534 10.4207L36.0195 11.2782ZM33.0147 8.30913C32.5411 8.02499 31.9268 8.17855 31.6427 8.65213C31.3585 9.12571 31.5121 9.73997 31.9857 10.0241L33.0147 8.30913ZM35.6668 15.8333C35.6668 16.3856 36.1145 16.8333 36.6668 16.8333C37.2191 16.8333 37.6668 16.3856 37.6668 15.8333H35.6668ZM37.6668 24.1666C37.6668 23.6143 37.2191 23.1666 36.6668 23.1666C36.1145 23.1666 35.6668 23.6143 35.6668 24.1666H37.6668ZM36.4593 11.5882L35.7083 12.2485L35.7083 12.2485L36.4593 11.5882ZM36.6273 11.8849L35.6747 12.1892L35.6747 12.1892L36.6273 11.8849ZM36.4593 28.4117L35.7083 27.7514L35.7083 27.7514L36.4593 28.4117ZM36.6273 28.115L35.6747 27.8108L35.6747 27.8108L36.6273 28.115ZM20.1789 38.1754L19.9644 37.1987L19.9644 37.1987L20.1789 38.1754ZM19.8214 38.1754L20.0359 37.1987L20.0359 37.1987L19.8214 38.1754ZM3.54102 28.4117L4.29199 27.7514L4.29199 27.7514L3.54102 28.4117ZM3.37299 28.115L2.42039 28.4192L2.42039 28.4192L3.37299 28.115ZM3.37299 11.8849L4.3256 12.1892L4.3256 12.1892L3.37299 11.8849ZM3.54102 11.5882L4.29199 12.2485L4.29199 12.2485L3.54102 11.5882ZM19.8214 1.82451L19.6069 0.847786L19.6069 0.847786L19.8214 1.82451ZM20.1789 1.82451L20.3934 0.847786L20.3934 0.847786L20.1789 1.82451ZM26.6974 17.7694C27.1914 17.5224 27.3916 16.9217 27.1446 16.4277C26.8976 15.9338 26.2969 15.7335 25.8029 15.9805L26.6974 17.7694ZM14.1974 15.9805C13.7034 15.7335 13.1027 15.9338 12.8557 16.4277C12.6087 16.9217 12.809 17.5224 13.3029 17.7694L14.1974 15.9805ZM19.0002 26.875C19.0002 27.4272 19.4479 27.875 20.0002 27.875C20.5524 27.875 21.0002 27.4272 21.0002 26.875H19.0002ZM19.0002 38.3333C19.0002 38.8856 19.4479 39.3333 20.0002 39.3333C20.5524 39.3333 21.0002 38.8856 21.0002 38.3333H19.0002ZM21.0002 33.75C21.0002 33.1977 20.5524 32.75 20.0002 32.75C19.4479 32.75 19.0002 33.1977 19.0002 33.75H21.0002ZM7.05295 14.6444C7.54693 14.8914 8.1476 14.6912 8.39459 14.1972C8.64158 13.7032 8.44135 13.1025 7.94738 12.8555L7.05295 14.6444ZM3.78071 10.7722C3.28673 10.5252 2.68606 10.7254 2.43907 11.2194C2.19208 11.7134 2.3923 12.3141 2.88628 12.5611L3.78071 10.7722ZM32.0529 12.8555C31.559 13.1025 31.3587 13.7032 31.6057 14.1972C31.8527 14.6912 32.4534 14.8914 32.9474 14.6444L32.0529 12.8555ZM37.114 12.5611C37.608 12.3141 37.8082 11.7134 37.5613 11.2194C37.3143 10.7254 36.7136 10.5252 36.2196 10.7722L37.114 12.5611ZM21.0002 1.66663C21.0002 1.11434 20.5524 0.666626 20.0002 0.666626C19.4479 0.666626 19.0002 1.11434 19.0002 1.66663H21.0002ZM19.0002 9.99996C19.0002 10.5522 19.4479 11 20.0002 11C20.5524 11 21.0002 10.5522 21.0002 9.99996H19.0002ZM2.88628 27.4389C2.3923 27.6859 2.19208 28.2865 2.43907 28.7805C2.68606 29.2745 3.28673 29.4747 3.78071 29.2277L2.88628 27.4389ZM10.0307 26.1027C10.5247 25.8557 10.7249 25.2551 10.4779 24.7611C10.2309 24.2671 9.63026 24.0669 9.13628 24.3139L10.0307 26.1027ZM36.2196 29.2277C36.7136 29.4747 37.3143 29.2745 37.5613 28.7805C37.8082 28.2865 37.608 27.6859 37.114 27.4389L36.2196 29.2277ZM30.864 24.3139C30.3701 24.0669 29.7694 24.2671 29.5224 24.7611C29.2754 25.2551 29.4756 25.8557 29.9696 26.1027L30.864 24.3139ZM21.2007 38.7792L24.6813 36.6908L23.6523 34.9758L20.1717 37.0642L21.2007 38.7792ZM15.319 36.6908L18.7997 38.7792L19.8287 37.0642L16.348 34.9758L15.319 36.6908ZM33.0147 31.6908L36.534 29.5792L35.505 27.8642L31.9857 29.9758L33.0147 31.6908ZM3.46634 29.5792L6.98567 31.6908L8.01466 29.9758L4.49533 27.8642L3.46634 29.5792ZM2.3335 24.1666V27.5784H4.3335V24.1666H2.3335ZM2.3335 12.4215V15.8333H4.3335V12.4215H2.3335ZM6.98567 8.30913L3.46634 10.4207L4.49533 12.1357L8.01466 10.0241L6.98567 8.30913ZM18.7997 1.22073L15.319 3.30913L16.348 5.02412L19.8287 2.93572L18.7997 1.22073ZM24.6813 3.30913L21.2007 1.22073L20.1717 2.93572L23.6523 5.02412L24.6813 3.30913ZM36.534 10.4207L33.0147 8.30913L31.9857 10.0241L35.505 12.1357L36.534 10.4207ZM37.6668 15.8333V12.4215H35.6668V15.8333H37.6668ZM37.6668 27.5784V24.1666H35.6668V27.5784H37.6668ZM35.505 12.1357C35.5654 12.172 35.6117 12.1998 35.6514 12.2242C35.6909 12.2485 35.7156 12.2645 35.732 12.2757C35.7627 12.2966 35.7404 12.285 35.7083 12.2485L37.2103 10.9278C36.9973 10.6856 36.7134 10.5284 36.534 10.4207L35.505 12.1357ZM37.6668 12.4215C37.6668 12.2123 37.6781 11.888 37.5799 11.5807L35.6747 12.1892C35.6599 12.1429 35.6614 12.1178 35.6636 12.1549C35.6648 12.1747 35.6657 12.2041 35.6663 12.2505C35.6668 12.2971 35.6668 12.3511 35.6668 12.4215H37.6668ZM35.7083 12.2485C35.6932 12.2312 35.6817 12.211 35.6747 12.1892L37.5799 11.5807C37.503 11.34 37.3772 11.1177 37.2103 10.9278L35.7083 12.2485ZM36.534 29.5792C36.7134 29.4716 36.9973 29.3143 37.2103 29.0721L35.7083 27.7514C35.7404 27.7149 35.7627 27.7033 35.732 27.7242C35.7156 27.7354 35.6909 27.7514 35.6514 27.7757C35.6117 27.8002 35.5654 27.8279 35.505 27.8642L36.534 29.5792ZM35.6668 27.5784C35.6668 27.6488 35.6668 27.7028 35.6663 27.7494C35.6657 27.7959 35.6648 27.8252 35.6636 27.845C35.6614 27.8821 35.6599 27.857 35.6747 27.8108L37.5799 28.4192C37.6781 28.1119 37.6668 27.7876 37.6668 27.5784H35.6668ZM37.2103 29.0721C37.3772 28.8823 37.503 28.66 37.5799 28.4192L35.6747 27.8108C35.6817 27.7889 35.6932 27.7687 35.7083 27.7514L37.2103 29.0721ZM20.1717 37.0642C20.1078 37.1025 20.0588 37.1319 20.0162 37.1568C19.9738 37.1815 19.9465 37.1967 19.9277 37.2064C19.8923 37.2248 19.9142 37.2097 19.9644 37.1987L20.3934 39.1521C20.7243 39.0795 21.0115 38.8927 21.2007 38.7792L20.1717 37.0642ZM18.7997 38.7792C18.9888 38.8927 19.276 39.0795 19.6069 39.1521L20.0359 37.1987C20.0862 37.2097 20.108 37.2248 20.0727 37.2064C20.0539 37.1967 20.0266 37.1815 19.9841 37.1568C19.9415 37.1319 19.8925 37.1025 19.8287 37.0642L18.7997 38.7792ZM19.9644 37.1987C19.988 37.1935 20.0124 37.1935 20.0359 37.1987L19.6069 39.1521C19.866 39.209 20.1343 39.209 20.3934 39.1521L19.9644 37.1987ZM4.49533 27.8642C4.4349 27.8279 4.38862 27.8002 4.34893 27.7757C4.3094 27.7514 4.28472 27.7354 4.26832 27.7242C4.23766 27.7033 4.25991 27.7149 4.29199 27.7514L2.79005 29.0721C3.00305 29.3143 3.28695 29.4716 3.46634 29.5792L4.49533 27.8642ZM2.3335 27.5784C2.3335 27.7876 2.32226 28.1119 2.42039 28.4192L4.3256 27.8108C4.34038 27.8571 4.33889 27.8821 4.33672 27.8451C4.33556 27.8252 4.33458 27.7959 4.33405 27.7494C4.33351 27.7028 4.3335 27.6488 4.3335 27.5784H2.3335ZM4.29199 27.7514C4.30717 27.7687 4.31861 27.7889 4.3256 27.8108L2.42039 28.4192C2.49728 28.66 2.62314 28.8823 2.79005 29.0721L4.29199 27.7514ZM4.3335 12.4215C4.3335 12.3511 4.33351 12.2971 4.33405 12.2505C4.33458 12.2041 4.33556 12.1747 4.33672 12.1549C4.33889 12.1178 4.34038 12.1429 4.3256 12.1892L2.42039 11.5807C2.32226 11.888 2.3335 12.2123 2.3335 12.4215H4.3335ZM3.46634 10.4207C3.28695 10.5284 3.00305 10.6856 2.79005 10.9278L4.29199 12.2485C4.25991 12.285 4.23766 12.2966 4.26832 12.2757C4.28472 12.2645 4.3094 12.2485 4.34893 12.2242C4.38862 12.1998 4.4349 12.172 4.49533 12.1357L3.46634 10.4207ZM4.3256 12.1892C4.31861 12.211 4.30717 12.2313 4.29199 12.2485L2.79005 10.9278C2.62314 11.1177 2.49728 11.3399 2.42039 11.5807L4.3256 12.1892ZM19.8287 2.93571C19.8925 2.89742 19.9415 2.86804 19.9841 2.84316C20.0266 2.81838 20.0539 2.80325 20.0727 2.79348C20.108 2.7751 20.0862 2.7902 20.0359 2.80124L19.6069 0.847786C19.276 0.920458 18.9888 1.10723 18.7997 1.22073L19.8287 2.93571ZM21.2007 1.22073C21.0115 1.10723 20.7243 0.920457 20.3934 0.847786L19.9644 2.80124C19.9142 2.7902 19.8923 2.7751 19.9277 2.79348C19.9465 2.80325 19.9738 2.81838 20.0162 2.84316C20.0588 2.86804 20.1078 2.89742 20.1717 2.93572L21.2007 1.22073ZM20.0359 2.80124C20.0124 2.80641 19.988 2.80641 19.9644 2.80124L20.3934 0.847786C20.1343 0.790895 19.866 0.790895 19.6069 0.847786L20.0359 2.80124ZM21.0002 38.3333V33.75H19.0002V38.3333H21.0002ZM7.94738 12.8555L3.78071 10.7722L2.88628 12.5611L7.05295 14.6444L7.94738 12.8555ZM32.9474 14.6444L37.114 12.5611L36.2196 10.7722L32.0529 12.8555L32.9474 14.6444ZM19.0002 1.66663V9.99996H21.0002V1.66663H19.0002ZM20.4474 20.8944L26.6974 17.7694L25.8029 15.9805L19.5529 19.1055L20.4474 20.8944ZM20.4474 19.1055L14.1974 15.9805L13.3029 17.7694L19.5529 20.8944L20.4474 19.1055ZM21.0002 26.875V20H19.0002V26.875H21.0002ZM3.78071 29.2277L10.0307 26.1027L9.13628 24.3139L2.88628 27.4389L3.78071 29.2277ZM37.114 27.4389L30.864 24.3139L29.9696 26.1027L36.2196 29.2277L37.114 27.4389Z" fill="#2C4C99"/>
</svg>
