<svg width="40" height="40" viewBox="0 0 40 40" fill="none" xmlns="http://www.w3.org/2000/svg">
<path d="M8.3335 15C11.0949 15 13.3335 12.7614 13.3335 10C13.3335 7.23858 11.0949 5 8.3335 5C5.57207 5 3.3335 7.23858 3.3335 10C3.3335 12.7614 5.57207 15 8.3335 15Z" stroke="#2C4C99" stroke-width="2" stroke-linecap="round" stroke-linejoin="round"/>
<path d="M20 10H28.3333C29.2174 10 30.0652 10.3512 30.6904 10.9763C31.3155 11.6014 31.6667 12.4493 31.6667 13.3333V25" stroke="#2C4C99" stroke-width="2" stroke-linecap="round" stroke-linejoin="round"/>
<path d="M25 15L20 10L25 5" stroke="#2C4C99" stroke-width="2" stroke-linecap="round" stroke-linejoin="round"/>
<path d="M31.6665 35C34.4279 35 36.6665 32.7614 36.6665 30C36.6665 27.2386 34.4279 25 31.6665 25C28.9051 25 26.6665 27.2386 26.6665 30C26.6665 32.7614 28.9051 35 31.6665 35Z" stroke="#2C4C99" stroke-width="2" stroke-linecap="round" stroke-linejoin="round"/>
<path d="M20.0002 30H11.6668C10.7828 30 9.93493 29.6488 9.30981 29.0237C8.68469 28.3986 8.3335 27.5507 8.3335 26.6667V15" stroke="#2C4C99" stroke-width="2" stroke-linecap="round" stroke-linejoin="round"/>
<path d="M15 25L20 30L15 35" stroke="#2C4C99" stroke-width="2" stroke-linecap="round" stroke-linejoin="round"/>
</svg>
