<svg width="40" height="40" viewBox="0 0 40 40" fill="none" xmlns="http://www.w3.org/2000/svg">
<path d="M13.3332 15.6667C12.7809 15.6667 12.3332 16.1144 12.3332 16.6667C12.3332 17.219 12.7809 17.6667 13.3332 17.6667V15.6667ZM21.6665 17.6667C22.2188 17.6667 22.6665 17.219 22.6665 16.6667C22.6665 16.1144 22.2188 15.6667 21.6665 15.6667V17.6667ZM13.3332 22.3333C12.7809 22.3333 12.3332 22.781 12.3332 23.3333C12.3332 23.8856 12.7809 24.3333 13.3332 24.3333V22.3333ZM21.6665 24.3333C22.2188 24.3333 22.6665 23.8856 22.6665 23.3333C22.6665 22.781 22.2188 22.3333 21.6665 22.3333V24.3333ZM13.3332 29C12.7809 29 12.3332 29.4477 12.3332 30C12.3332 30.5523 12.7809 31 13.3332 31V29ZM21.6665 31C22.2188 31 22.6665 30.5523 22.6665 30C22.6665 29.4477 22.2188 29 21.6665 29V31ZM8.48654 36.3034L8.94053 35.4123L8.48654 36.3034ZM7.02982 34.8466L7.92082 34.3926L7.02982 34.8466ZM27.9699 34.8466L27.0789 34.3926L27.9699 34.8466ZM26.5131 36.3034L26.0591 35.4123L26.5131 36.3034ZM26.5131 10.3633L26.0591 11.2543L26.5131 10.3633ZM27.9699 11.82L27.0789 12.274L27.9699 11.82ZM8.48654 10.3633L8.94053 11.2543L8.48654 10.3633ZM7.02982 11.82L7.92082 12.274L7.02982 11.82ZM13.3333 4C12.781 4 12.3333 4.44772 12.3333 5C12.3333 5.55228 12.781 6 13.3333 6V4ZM32.3332 33.3333C32.3332 33.8856 32.7809 34.3333 33.3332 34.3333C33.8855 34.3333 34.3332 33.8856 34.3332 33.3333H32.3332ZM31.5131 5.36331L31.9671 4.47231L31.9671 4.47231L31.5131 5.36331ZM32.9699 6.82003L32.0789 7.27402L32.0789 7.27402L32.9699 6.82003ZM13.3332 17.6667H21.6665V15.6667H13.3332V17.6667ZM13.3332 24.3333H21.6665V22.3333H13.3332V24.3333ZM13.3332 31H21.6665V29H13.3332V31ZM11.9998 11H22.9998V9H11.9998V11ZM27.3332 15.3333V31.3333H29.3332V15.3333H27.3332ZM22.9998 35.6667H11.9998V37.6667H22.9998V35.6667ZM7.6665 31.3333V15.3333H5.6665V31.3333H7.6665ZM11.9998 35.6667C11.0499 35.6667 10.3976 35.6659 9.89194 35.6246C9.39794 35.5842 9.13258 35.5102 8.94053 35.4123L8.03254 37.1944C8.55353 37.4598 9.1114 37.5675 9.72908 37.6179C10.3351 37.6674 11.0829 37.6667 11.9998 37.6667V35.6667ZM5.6665 31.3333C5.6665 32.2503 5.66573 32.9981 5.71524 33.6041C5.76571 34.2218 5.87335 34.7796 6.13881 35.3006L7.92082 34.3926C7.82297 34.2006 7.74896 33.9352 7.7086 33.4412C7.66728 32.9356 7.6665 32.2833 7.6665 31.3333H5.6665ZM8.94053 35.4123C8.50148 35.1886 8.14453 34.8317 7.92082 34.3926L6.13881 35.3006C6.55426 36.116 7.21718 36.7789 8.03254 37.1944L8.94053 35.4123ZM27.3332 31.3333C27.3332 32.2833 27.3324 32.9356 27.2911 33.4412C27.2507 33.9352 27.1767 34.2006 27.0789 34.3926L28.8609 35.3006C29.1263 34.7796 29.234 34.2218 29.2844 33.6041C29.3339 32.9981 29.3332 32.2503 29.3332 31.3333H27.3332ZM22.9998 37.6667C23.9168 37.6667 24.6646 37.6674 25.2706 37.6179C25.8883 37.5675 26.4461 37.4598 26.9671 37.1944L26.0591 35.4123C25.8671 35.5102 25.6017 35.5842 25.1077 35.6246C24.6021 35.6659 23.9498 35.6667 22.9998 35.6667V37.6667ZM27.0789 34.3926C26.8551 34.8317 26.4982 35.1886 26.0591 35.4123L26.9671 37.1944C27.7825 36.7789 28.4454 36.116 28.8609 35.3006L27.0789 34.3926ZM22.9998 11C23.9498 11 24.6021 11.0008 25.1077 11.0421C25.6017 11.0825 25.8671 11.1565 26.0591 11.2543L26.9671 9.47231C26.4461 9.20685 25.8883 9.0992 25.2706 9.04874C24.6646 8.99922 23.9168 9 22.9998 9V11ZM29.3332 15.3333C29.3332 14.4164 29.3339 13.6686 29.2844 13.0626C29.234 12.4449 29.1263 11.887 28.8609 11.366L27.0789 12.274C27.1767 12.4661 27.2507 12.7314 27.2911 13.2254C27.3324 13.7311 27.3332 14.3834 27.3332 15.3333H29.3332ZM26.0591 11.2543C26.4982 11.478 26.8551 11.835 27.0789 12.274L28.8609 11.366C28.4454 10.5507 27.7825 9.88776 26.9671 9.47231L26.0591 11.2543ZM11.9998 9C11.0829 9 10.3351 8.99922 9.72908 9.04874C9.1114 9.0992 8.55353 9.20685 8.03254 9.47231L8.94053 11.2543C9.13258 11.1565 9.39794 11.0825 9.89194 11.0421C10.3976 11.0008 11.0499 11 11.9998 11V9ZM7.6665 15.3333C7.6665 14.3834 7.66728 13.7311 7.7086 13.2254C7.74896 12.7314 7.82297 12.4661 7.92082 12.274L6.13881 11.366C5.87335 11.887 5.76571 12.4449 5.71524 13.0626C5.66573 13.6686 5.6665 14.4164 5.6665 15.3333H7.6665ZM8.03254 9.47231C7.21718 9.88776 6.55426 10.5507 6.13881 11.366L7.92082 12.274C8.14453 11.835 8.50148 11.478 8.94053 11.2543L8.03254 9.47231ZM13.3333 6H27.9998V4H13.3333V6ZM32.3332 10.3333V33.3333H34.3332V10.3333H32.3332ZM27.9998 6C28.9498 6 29.6021 6.00078 30.1077 6.04209C30.6017 6.08245 30.8671 6.15646 31.0591 6.25432L31.9671 4.47231C31.4461 4.20685 30.8883 4.0992 30.2706 4.04874C29.6646 3.99922 28.9168 4 27.9998 4V6ZM34.3332 10.3333C34.3332 9.41641 34.3339 8.66858 34.2844 8.06257C34.234 7.44489 34.1263 6.88703 33.8609 6.36604L32.0789 7.27402C32.1767 7.46607 32.2507 7.73144 32.2911 8.22544C32.3324 8.73111 32.3332 9.38341 32.3332 10.3333H34.3332ZM31.0591 6.25432C31.4982 6.47802 31.8551 6.83498 32.0789 7.27402L33.8609 6.36604C33.4454 5.55067 32.7825 4.88776 31.9671 4.47231L31.0591 6.25432Z" fill="#2C4C99"/>
</svg>
