<svg width="40" height="40" viewBox="0 0 40 40" fill="none" xmlns="http://www.w3.org/2000/svg">
<path d="M26.6665 36.6667H29.9998C30.8839 36.6667 31.7317 36.3155 32.3569 35.6904C32.982 35.0653 33.3332 34.2174 33.3332 33.3334V11.6667L24.9998 3.33337H9.99984C9.11578 3.33337 8.26794 3.68456 7.64281 4.30968C7.01769 4.93481 6.6665 5.78265 6.6665 6.66671V11.6667" stroke="#2C4C99" stroke-width="2" stroke-linecap="round" stroke-linejoin="round"/>
<path d="M23.3335 3.33337V10C23.3335 10.8841 23.6847 11.7319 24.3098 12.3571C24.9349 12.9822 25.7828 13.3334 26.6668 13.3334H33.3335" stroke="#2C4C99" stroke-width="2" stroke-linecap="round" stroke-linejoin="round"/>
<path d="M13.3335 36.6666C18.8563 36.6666 23.3335 32.1895 23.3335 26.6666C23.3335 21.1438 18.8563 16.6666 13.3335 16.6666C7.81065 16.6666 3.3335 21.1438 3.3335 26.6666C3.3335 32.1895 7.81065 36.6666 13.3335 36.6666Z" stroke="#2C4C99" stroke-width="2" stroke-linecap="round" stroke-linejoin="round"/>
<path d="M15.8335 29.1667L13.3335 27.0834V23.3334" stroke="#2C4C99" stroke-width="2" stroke-linecap="round" stroke-linejoin="round"/>
</svg>
