<svg width="40" height="40" viewBox="0 0 40 40" fill="none" xmlns="http://www.w3.org/2000/svg">
<path d="M19.9998 26.6667V35M19.9998 26.6667L9.99984 35M19.9998 26.6667L29.9998 35M4.99984 5V18.6667C4.99984 21.4669 4.99984 22.8671 5.5448 23.9366C6.02417 24.8774 6.78907 25.6423 7.72988 26.1217C8.79944 26.6667 10.1996 26.6667 12.9998 26.6667H26.9998C29.8001 26.6667 31.2002 26.6667 32.2698 26.1217C33.2106 25.6423 33.9755 24.8774 34.4549 23.9366C34.9998 22.8671 34.9998 21.4669 34.9998 18.6667V5M26.6665 15V20M19.9998 11.6667V20M13.3332 18.3333V20M3.33317 5H36.6665" stroke="#2C4C99" stroke-width="2" stroke-linecap="round" stroke-linejoin="round"/>
</svg>
