<svg width="24" height="167" viewBox="0 0 24 167" fill="none" xmlns="http://www.w3.org/2000/svg">
<path d="M13.8208 2.55566C13.8208 1.67305 13.1053 0.957554 12.2227 0.957554C11.34 0.957554 10.6245 1.67305 10.6245 2.55566L13.8208 2.55566ZM11.0926 165.686C11.7167 166.31 12.7286 166.31 13.3527 165.686L23.523 155.515C24.1471 154.891 24.1471 153.879 23.523 153.255C22.8989 152.631 21.887 152.631 21.2629 153.255L12.2227 162.296L3.18238 153.255C2.55828 152.631 1.54641 152.631 0.922312 153.255C0.298211 153.879 0.298211 154.891 0.922312 155.515L11.0926 165.686ZM10.6245 2.55566L10.6245 164.556H13.8208L13.8208 2.55566L10.6245 2.55566Z" fill="#C62928"/>
</svg>
