<svg width="277" height="62" viewBox="0 0 277 62" fill="none" xmlns="http://www.w3.org/2000/svg">
<g clip-path="url(#clip0_271_109)">
<path d="M90.6011 44.5074H86.5898V22.6191H86.8741L90.6011 44.5074Z" fill="#C62928"/>
<path d="M110.474 22.6191V44.5074H106.234L110.19 22.6191H110.474Z" fill="#C62928"/>
<path d="M106.303 22.6191H110.188L99.9757 39.9866H97.1155L86.875 22.6191H90.8021L98.7229 35.5816L106.303 22.6191Z" fill="#C62928"/>
<path d="M122.772 44.9776C121.073 44.9776 119.578 44.6304 118.298 43.9395C117.013 43.2451 116.016 42.2806 115.3 41.0391C114.585 39.801 114.227 38.3561 114.227 36.7077C114.227 35.4977 114.434 34.3895 114.844 33.3794C115.258 32.3658 115.841 31.489 116.595 30.7455C117.35 29.9985 118.238 29.4233 119.256 29.0165C120.273 28.6097 121.386 28.4062 122.593 28.4062C123.909 28.4062 125.081 28.6377 126.113 29.1007C127.145 29.5636 128.005 30.2159 128.685 31.0542C129.366 31.8924 129.847 32.8744 130.124 33.9932C130.402 35.112 130.433 36.336 130.226 37.6582H117.992C117.982 38.4823 118.178 39.2013 118.578 39.8151C118.978 40.4288 119.554 40.9128 120.298 41.26C121.045 41.6107 121.923 41.7861 122.933 41.7861C123.832 41.7861 124.692 41.6563 125.516 41.3933C126.341 41.1338 127.106 40.748 127.815 40.2359L129.222 43.0346C128.731 43.431 128.124 43.7747 127.39 44.0657C126.661 44.3604 125.892 44.5813 125.085 44.7391C124.278 44.8934 123.502 44.9741 122.762 44.9741L122.772 44.9776ZM118.234 34.8138H126.355C126.324 33.7617 125.976 32.9375 125.306 32.3378C124.639 31.7381 123.706 31.4399 122.505 31.4399C121.305 31.4399 120.336 31.7381 119.564 32.3378C118.792 32.9375 118.35 33.7617 118.234 34.8138Z" fill="#C62928"/>
<path d="M148.907 41.2529V28.8726H135.508V33.8633C135.508 35.2416 135.423 36.4515 135.251 37.4862C135.079 38.5243 134.753 39.3765 134.255 40.0464C133.756 40.7128 133.016 41.1547 132.051 41.3826V49.2001H135.722V44.511H148.38V49.2001H152.051V41.2529H148.907ZM137.585 41.2529C137.729 41.0389 137.855 40.825 137.968 40.6005C138.424 39.7202 138.75 38.7102 138.936 37.5738C139.108 36.4375 139.207 35.1995 139.207 33.8633V32.1307H144.895V41.2564H137.585V41.2529Z" fill="#C62928"/>
<path d="M168.105 36.5605C168.105 37.8406 167.905 38.9909 167.508 40.015C167.112 41.0531 166.54 41.9334 165.803 42.6735C165.076 43.4135 164.181 43.9676 163.143 44.3779C162.104 44.7743 160.953 44.9742 159.672 44.9742C158.861 44.9742 158.065 44.904 157.282 44.7462C156.499 44.5884 155.759 44.3639 155.078 44.0623C154.411 43.7642 153.811 43.3784 153.313 42.926L154.976 40.2395C155.545 40.7656 156.229 41.1619 157.012 41.4319C157.794 41.702 158.577 41.8458 159.36 41.8458C160.44 41.8458 161.363 41.6599 162.118 41.2916C162.872 40.9234 163.441 40.3517 163.824 39.5731C164.052 39.1172 164.206 38.5771 164.294 37.9668H156.629V35.0664H164.266C164.094 34.0844 163.711 33.3163 163.129 32.7622C162.276 31.938 161.051 31.5242 159.444 31.5242C158.619 31.5242 157.836 31.668 157.11 31.9521C156.369 32.2361 155.731 32.6184 155.204 33.0743L153.741 30.3879C154.495 29.7636 155.418 29.2796 156.513 28.9254C157.622 28.5852 158.759 28.3993 159.914 28.3993C161.577 28.3993 163.016 28.7395 164.238 29.4234C165.476 30.0897 166.413 31.0437 167.098 32.2677C167.765 33.4917 168.109 34.9261 168.109 36.5605H168.105Z" fill="#C62928"/>
<path d="M186.48 44.5075H181.718L177.735 38.0263H175.415V44.5075H171.418V28.8726H175.415V34.7716H177.623L181.518 28.8726H185.786L180.95 36.0482L186.48 44.5075Z" fill="#C62928"/>
<path d="M196.292 44.9777C194.632 44.9777 193.162 44.6165 191.874 43.8905C190.586 43.1645 189.572 42.179 188.831 40.9339C188.091 39.6889 187.719 38.272 187.719 36.6903C187.719 35.4908 187.94 34.3896 188.375 33.383C188.814 32.3765 189.428 31.5032 190.221 30.7561C191.014 30.0091 191.944 29.4304 193.014 29.0201C194.085 28.6062 195.25 28.4028 196.513 28.4028C197.608 28.4028 198.626 28.5501 199.563 28.8412C200.504 29.1358 201.363 29.5812 202.146 30.188L200.283 33.2041C199.791 32.7657 199.237 32.4396 198.616 32.2256C197.994 32.0117 197.345 31.9065 196.668 31.9065C195.647 31.9065 194.769 32.0924 194.032 32.4676C193.299 32.8429 192.73 33.3865 192.334 34.095C191.937 34.8034 191.741 35.6627 191.741 36.6727C191.741 38.1738 192.179 39.3487 193.064 40.2009C193.944 41.0497 195.148 41.474 196.668 41.474C197.429 41.474 198.149 41.3338 198.826 41.0497C199.503 40.7691 200.093 40.3833 200.591 39.8923L202.378 42.926C201.521 43.5608 200.567 44.0623 199.514 44.4271C198.461 44.7918 197.387 44.9742 196.292 44.9742V44.9777Z" fill="#C62928"/>
<path d="M205.383 44.508V28.873H220.589V44.508H216.585V32.1242H209.387V44.508H205.383Z" fill="#C62928"/>
<path d="M232.432 44.9776C230.734 44.9776 229.239 44.6304 227.958 43.9395C226.673 43.2451 225.677 42.2806 224.961 41.0391C224.245 39.801 223.887 38.3561 223.887 36.7077C223.887 35.4977 224.094 34.3895 224.504 33.3794C224.918 32.3658 225.501 31.489 226.256 30.7455C227.01 29.9985 227.898 29.4233 228.916 29.0165C229.933 28.6097 231.046 28.4062 232.253 28.4062C233.569 28.4062 234.741 28.6377 235.773 29.1007C236.805 29.5636 237.665 30.2159 238.346 31.0542C239.026 31.8924 239.507 32.8744 239.784 33.9932C240.062 35.112 240.093 36.336 239.886 37.6582H227.652C227.642 38.4823 227.838 39.2013 228.238 39.8151C228.638 40.4288 229.214 40.9128 229.958 41.26C230.706 41.6107 231.583 41.7861 232.594 41.7861C233.492 41.7861 234.352 41.6563 235.177 41.3933C236.001 41.1338 236.766 40.748 237.475 40.2359L238.883 43.0346C238.391 43.431 237.784 43.7747 237.051 44.0657C236.321 44.3604 235.552 44.5813 234.745 44.7391C233.938 44.8934 233.162 44.9741 232.422 44.9741L232.432 44.9776ZM227.894 34.8138H236.015C235.984 33.7617 235.636 32.9375 234.966 32.3378C234.296 31.7381 233.366 31.4399 232.165 31.4399C230.965 31.4399 229.997 31.7381 229.225 32.3378C228.452 32.9375 228.01 33.7617 227.894 34.8138Z" fill="#C62928"/>
<path d="M243.336 51.0766V28.8727H246.873V30.9384C247.477 30.1774 248.256 29.5636 249.203 29.1007C250.154 28.6377 251.302 28.4062 252.646 28.4062C254.159 28.4062 255.506 28.7605 256.685 29.4689C257.865 30.1774 258.791 31.1559 259.461 32.4009C260.135 33.646 260.469 35.0769 260.469 36.6937C260.469 37.851 260.276 38.9313 259.89 39.9308C259.504 40.9303 258.96 41.8106 258.261 42.5647C257.563 43.3222 256.731 43.9114 255.766 44.3393C254.801 44.7672 253.741 44.9811 252.579 44.9811C251.418 44.9811 250.453 44.7847 249.582 44.3954C248.712 44.0061 247.957 43.4695 247.322 42.7926V51.0801H243.332L243.336 51.0766ZM251.909 41.4775C252.797 41.4775 253.583 41.2811 254.271 40.8918C254.959 40.5025 255.503 39.9483 255.896 39.2329C256.292 38.5209 256.489 37.6722 256.489 36.6937C256.489 35.7152 256.292 34.8629 255.896 34.144C255.499 33.425 254.955 32.8709 254.26 32.4851C253.569 32.0993 252.783 31.9064 251.906 31.9064C251.028 31.9064 250.232 32.0993 249.544 32.4851C248.856 32.8709 248.312 33.425 247.919 34.144C247.522 34.8629 247.326 35.7117 247.326 36.6937C247.326 37.6757 247.519 38.5209 247.912 39.2329C248.305 39.9483 248.845 40.499 249.537 40.8918C250.232 41.2846 251.021 41.4775 251.909 41.4775Z" fill="#C62928"/>
<path d="M267.134 44.5075V32.1237H262.207V28.8726H276.069V32.1237H271.142V44.5075H267.138H267.134Z" fill="#C62928"/>
<path d="M20.0794 48.1452H13.9062V14.4624H14.3449L20.0794 48.1452Z" fill="#C62928"/>
<path d="M50.6527 14.4624V48.1452H44.1287L50.214 14.4624H50.6527Z" fill="#C62928"/>
<path d="M44.2368 14.4624H50.2134L34.4981 41.1905H30.0972L14.3398 14.4624H20.3831L32.5714 34.4077L44.2368 14.4624Z" fill="#C62928"/>
<path d="M61.4312 34.3198H64.4809C64.4809 49.59 52.0926 61.9703 36.8125 61.9703C36.8125 61.9703 60.9399 61.2478 61.4277 34.3198H61.4312Z" fill="#C62928"/>
<path d="M3.12002 28.2872H0.0703125C0.0703125 13.017 12.4586 0.636719 27.7387 0.636719C27.7387 0.636719 3.61134 1.35919 3.12353 28.2872H3.12002Z" fill="#C62928"/>
</g>
<defs>
<clipPath id="clip0_271_109">
<rect width="276" height="61.3333" fill="white" transform="translate(0.0703125 0.636719)"/>
</clipPath>
</defs>
</svg>
