<svg width="60" height="60" viewBox="0 0 60 60" fill="none" xmlns="http://www.w3.org/2000/svg">
<path d="M2.92578 41.0312V42.6927C2.92578 44.9019 4.71664 46.6927 6.92578 46.6927H53.0737C55.2829 46.6927 57.0737 44.9019 57.0737 42.6927V41.0312M2.92578 41.0312V11.3549C2.92578 9.14572 4.71664 7.35486 6.92578 7.35486H11.9529M2.92578 41.0312H21.7609M28.2687 41.0312H31.0089M35.5758 41.0312H57.0737M57.0737 41.0312V11.3549C57.0737 9.14572 55.2829 7.35486 53.0737 7.35486H47.1677" stroke="white" stroke-width="2" stroke-linecap="round"/>
<path d="M12.2769 5.84265C12.2769 3.63351 14.0677 1.84265 16.2769 1.84265H43.0277C45.2369 1.84265 47.0277 3.63351 47.0277 5.84265V32.4543C47.0277 34.6635 45.2369 36.4543 43.0277 36.4543H16.2769C14.0677 36.4543 12.2769 34.6635 12.2769 32.4543V5.84265Z" stroke="white" stroke-width="2"/>
<path d="M21.0993 6.30103H17.9844C17.4321 6.30103 16.9844 6.74874 16.9844 7.30103V10.5723M38.0562 6.30103H41.4632C42.0154 6.30103 42.4632 6.74874 42.4632 7.30103V10.5723M42.4632 27.0502V30.6777C42.4632 31.23 42.0154 31.6777 41.4632 31.6777H38.0562M21.0993 31.6777H17.9844C17.4321 31.6777 16.9844 31.23 16.9844 30.6777V27.0502" stroke="white" stroke-width="2" stroke-linecap="round"/>
<path d="M10.9395 55.6498C10.9395 53.9929 12.2826 52.6498 13.9395 52.6498H45.3652C47.0221 52.6498 48.3652 53.9929 48.3652 55.6498V57.1571C48.3652 57.7093 47.9175 58.1571 47.3652 58.1571H11.9395C11.3872 58.1571 10.9395 57.7093 10.9395 57.1571V55.6498Z" stroke="white" stroke-width="2"/>
<path d="M19.6479 47.1425H39.8004V52.6497H19.6479V47.1425Z" stroke="white" stroke-width="2"/>
<path d="M29.6147 26.8674L22.7694 23.1599C22.4466 22.9851 22.2456 22.6476 22.2456 22.2806V15.0582M29.6147 26.8674L36.5312 23.159C36.856 22.9849 37.0587 22.6462 37.0587 22.2777V14.7964M29.6147 26.8674V18.9485M37.0587 14.7964L29.6147 18.9485M37.0587 14.7964L30.0449 11.6244C29.7725 11.5012 29.4593 11.5063 29.1911 11.6384L22.2456 15.0582M29.6147 18.9485L22.2456 15.0582" stroke="white" stroke-width="2" stroke-linejoin="round"/>
</svg>
