<svg width="24" height="56" viewBox="0 0 24 56" fill="none" xmlns="http://www.w3.org/2000/svg">
<path d="M13.5 2.43774C13.5 1.60932 12.8284 0.937744 12 0.937744C11.1716 0.937744 10.5 1.60932 10.5 2.43774H13.5ZM10.9393 55.4984C11.5251 56.0842 12.4749 56.0842 13.0607 55.4984L22.6066 45.9525C23.1924 45.3667 23.1924 44.4169 22.6066 43.8311C22.0208 43.2454 21.0711 43.2454 20.4853 43.8311L12 52.3164L3.51472 43.8311C2.92893 43.2454 1.97919 43.2454 1.3934 43.8311C0.807611 44.4169 0.807611 45.3667 1.3934 45.9525L10.9393 55.4984ZM10.5 2.43774L10.5 54.4377H13.5L13.5 2.43774H10.5Z" fill="#C62928"/>
</svg>
