<svg width="24" height="74" viewBox="0 0 24 74" fill="none" xmlns="http://www.w3.org/2000/svg">
<path d="M13.5 1.77002C13.5 0.941592 12.8284 0.270019 12 0.27002C11.1716 0.27002 10.5 0.941592 10.5 1.77002L13.5 1.77002ZM10.9393 72.8307C11.5251 73.4165 12.4749 73.4165 13.0607 72.8307L22.6066 63.2847C23.1924 62.699 23.1924 61.7492 22.6066 61.1634C22.0208 60.5776 21.0711 60.5776 20.4853 61.1634L12 69.6487L3.51472 61.1634C2.92893 60.5776 1.97919 60.5776 1.3934 61.1634C0.807614 61.7492 0.807614 62.699 1.3934 63.2847L10.9393 72.8307ZM10.5 1.77002L10.5 71.77L13.5 71.77L13.5 1.77002L10.5 1.77002Z" fill="#C62928"/>
</svg>
