<svg width="24" height="74" viewBox="0 0 24 74" fill="none" xmlns="http://www.w3.org/2000/svg">
<path d="M13.5 2.43781C13.5 1.60938 12.8284 0.937805 12 0.937805C11.1716 0.937805 10.5 1.60938 10.5 2.43781L13.5 2.43781ZM10.9393 73.4985C11.5251 74.0843 12.4749 74.0843 13.0607 73.4985L22.6066 63.9525C23.1924 63.3667 23.1924 62.417 22.6066 61.8312C22.0208 61.2454 21.0711 61.2454 20.4853 61.8312L12 70.3165L3.51472 61.8312C2.92893 61.2454 1.97919 61.2454 1.3934 61.8312C0.807614 62.417 0.807614 63.3667 1.3934 63.9525L10.9393 73.4985ZM10.5 2.43781L10.5 72.4378L13.5 72.4378L13.5 2.43781L10.5 2.43781Z" fill="#C62928"/>
</svg>
