<svg width="25" height="72" viewBox="0 0 25 72" fill="none" xmlns="http://www.w3.org/2000/svg">
<path d="M14.2356 2.46631C14.2356 1.58328 13.5197 0.867445 12.6367 0.867445C11.7537 0.867445 11.0379 1.58328 11.0379 2.46631L14.2356 2.46631ZM11.5062 70.5969C12.1305 71.2213 13.1429 71.2213 13.7673 70.5969L23.9424 60.4218C24.5668 59.7974 24.5668 58.785 23.9424 58.1606C23.318 57.5362 22.3056 57.5362 21.6813 58.1606L12.6367 67.2052L3.59218 58.1606C2.96779 57.5362 1.95544 57.5362 1.33105 58.1606C0.706655 58.785 0.706655 59.7974 1.33105 60.4218L11.5062 70.5969ZM11.0379 2.46631L11.0379 69.4663H14.2356L14.2356 2.46631L11.0379 2.46631Z" fill="#C62928"/>
</svg>
