<svg width="71" height="25" viewBox="0 0 71 25" fill="none" xmlns="http://www.w3.org/2000/svg">
<path d="M69.0469 14.031C69.9299 14.031 70.6457 13.3152 70.6457 12.4321C70.6457 11.5491 69.9299 10.8333 69.0469 10.8333V14.031ZM0.916306 11.3016C0.291916 11.926 0.291916 12.9383 0.916306 13.5627L11.0914 23.7378C11.7158 24.3622 12.7281 24.3622 13.3525 23.7378C13.9769 23.1134 13.9769 22.1011 13.3525 21.4767L4.30801 12.4321L13.3525 3.38759C13.9769 2.7632 13.9769 1.75085 13.3525 1.12646C12.7281 0.502065 11.7158 0.502065 11.0914 1.12646L0.916306 11.3016ZM69.0469 10.8333L2.04688 10.8333V14.031L69.0469 14.031V10.8333Z" fill="#C62928"/>
</svg>
