<svg width="71" height="25" viewBox="0 0 71 25" fill="none" xmlns="http://www.w3.org/2000/svg">
<path d="M2.04687 10.8333C1.16385 10.8333 0.448012 11.5491 0.448012 12.4321C0.448012 13.3152 1.16385 14.031 2.04688 14.031L2.04687 10.8333ZM70.1774 13.5627C70.8018 12.9383 70.8018 11.926 70.1774 11.3016L60.0023 1.12646C59.3779 0.502065 58.3656 0.502065 57.7412 1.12646C57.1168 1.75085 57.1168 2.7632 57.7412 3.38759L66.7857 12.4321L57.7412 21.4767C57.1168 22.1011 57.1168 23.1134 57.7412 23.7378C58.3656 24.3622 59.3779 24.3622 60.0023 23.7378L70.1774 13.5627ZM2.04688 14.031L69.0469 14.031V10.8333L2.04687 10.8333L2.04688 14.031Z" fill="#C62928"/>
</svg>
