<svg width="28" height="187" viewBox="0 0 28 187" fill="none" xmlns="http://www.w3.org/2000/svg">
<path d="M15.799 2.46631C15.799 1.47276 14.9935 0.667337 14 0.667337C13.0065 0.667337 12.201 1.47276 12.201 2.46631L15.799 2.46631ZM12.7279 185.738C13.4305 186.441 14.5695 186.441 15.2721 185.738L26.7206 174.29C27.4232 173.587 27.4232 172.448 26.7206 171.746C26.0181 171.043 24.8791 171.043 24.1765 171.746L14 181.922L3.82348 171.746C3.12094 171.043 1.98189 171.043 1.27935 171.746C0.576811 172.448 0.576811 173.587 1.27935 174.29L12.7279 185.738ZM12.201 2.46631L12.201 184.466H15.799L15.799 2.46631L12.201 2.46631Z" fill="#C62928"/>
</svg>
